<svg xmlns="http://www.w3.org/2000/svg" xmlns:xlink="http://www.w3.org/1999/xlink" width="500" zoomAndPan="magnify" viewBox="0 0 375 374.999991" height="500" preserveAspectRatio="xMidYMid meet" version="1.0"><defs><g/><clipPath id="id1"><path d="M 137.230469 87.527344 L 175.472656 87.527344 L 175.472656 237.457031 L 137.230469 237.457031 Z M 137.230469 87.527344 " clip-rule="nonzero"/></clipPath><clipPath id="id2"><path d="M 199.644531 87.527344 L 237.765625 87.527344 L 237.765625 237.457031 L 199.644531 237.457031 Z M 199.644531 87.527344 " clip-rule="nonzero"/></clipPath></defs><rect x="-37.5" width="450" fill="#ffffff" y="-37.499999" height="449.999989" fill-opacity="1"/><rect x="-37.5" width="450" fill="#ffffff" y="-37.499999" height="449.999989" fill-opacity="1"/><rect x="-37.5" width="450" fill="#ffffff" y="-37.499999" height="449.999989" fill-opacity="1"/><rect x="-37.5" width="450" fill="#ffffff" y="-37.499999" height="449.999989" fill-opacity="1"/><g clip-path="url(#id1)"><path fill="#000000" d="M 172.355469 93.210938 C 172.40625 93.199219 172.5625 93.191406 172.664062 93.1875 C 174.953125 93.097656 175.457031 91.828125 175.472656 90.78125 C 175.515625 88.546875 173.261719 88.046875 172.523438 87.882812 L 172.386719 87.851562 C 167.042969 86.632812 162.382812 88.8125 158.898438 94.144531 C 154.753906 100.476562 154.488281 107.90625 154.722656 113.675781 C 154.847656 116.75 155.269531 119.789062 155.675781 122.726562 C 155.894531 124.316406 156.125 125.960938 156.300781 127.578125 C 156.765625 131.894531 157.113281 137.558594 155.640625 143.035156 C 153.34375 151.574219 148.863281 156.886719 141.941406 159.273438 C 141.542969 159.410156 141.148438 159.546875 140.746094 159.683594 C 140.101562 159.902344 139.453125 160.121094 138.804688 160.351562 C 137.855469 160.6875 137.265625 161.449219 137.234375 162.394531 C 137.210938 162.945312 137.375 163.953125 138.695312 164.523438 C 139.316406 164.789062 139.808594 164.96875 140.285156 165.101562 C 153.011719 168.660156 157.011719 181.960938 156.566406 192.269531 C 156.417969 195.726562 155.96875 199.234375 155.539062 202.621094 L 155.398438 203.734375 C 154.738281 208.9375 154.242188 214.527344 155.085938 220.132812 C 156.011719 226.292969 158.042969 230.78125 161.289062 233.863281 C 163.800781 236.246094 166.542969 237.457031 169.363281 237.457031 C 170.574219 237.457031 171.800781 237.230469 173.03125 236.78125 L 173.078125 236.765625 C 173.640625 236.558594 175.351562 235.933594 175.3125 234.09375 C 175.300781 233.351562 174.988281 232.070312 173.097656 231.839844 C 173.058594 231.835938 173.019531 231.832031 172.984375 231.824219 C 172.660156 231.691406 172.378906 231.671875 172.21875 231.660156 L 172.191406 231.65625 C 167.292969 230.828125 164.261719 227.59375 162.925781 221.773438 C 162.175781 218.503906 161.988281 214.832031 162.339844 210.222656 C 162.539062 207.597656 162.859375 204.9375 163.164062 202.359375 C 163.519531 199.359375 163.890625 196.257812 164.085938 193.160156 C 164.777344 182.238281 161.0625 168.984375 151.371094 162.511719 C 158.453125 157.867188 162.707031 149.972656 164.027344 139.011719 C 164.699219 133.421875 163.984375 127.917969 163.289062 122.597656 L 163.191406 121.835938 C 162.625 117.472656 162.042969 112.964844 162.226562 108.5 C 162.59375 99.605469 166 94.457031 172.355469 93.210938 " fill-opacity="1" fill-rule="nonzero"/></g><g fill="#300000" fill-opacity="1"><g transform="translate(79.081896, 282.570656)"><g><path d="M 12.46875 -21.703125 C 15.625 -21.703125 18.117188 -20.910156 19.953125 -19.328125 C 21.796875 -17.742188 22.71875 -15.488281 22.71875 -12.5625 L 16.1875 -12.5625 C 16.1875 -13.800781 15.859375 -14.78125 15.203125 -15.5 C 14.554688 -16.21875 13.632812 -16.578125 12.4375 -16.578125 C 11.050781 -16.578125 10.03125 -16.144531 9.375 -15.28125 C 8.726562 -14.414062 8.40625 -13.207031 8.40625 -11.65625 L 8.40625 -9.671875 C 8.40625 -8.140625 8.726562 -6.9375 9.375 -6.0625 C 10.03125 -5.1875 11.03125 -4.75 12.375 -4.75 C 13.695312 -4.75 14.695312 -5.085938 15.375 -5.765625 C 16.0625 -6.441406 16.40625 -7.40625 16.40625 -8.65625 L 22.71875 -8.65625 C 22.71875 -5.738281 21.820312 -3.503906 20.03125 -1.953125 C 18.25 -0.398438 15.726562 0.375 12.46875 0.375 C 8.820312 0.375 6.0625 -0.550781 4.1875 -2.40625 C 2.320312 -4.269531 1.390625 -7.019531 1.390625 -10.65625 C 1.390625 -14.300781 2.320312 -17.050781 4.1875 -18.90625 C 6.0625 -20.769531 8.820312 -21.703125 12.46875 -21.703125 Z M 12.46875 -21.703125 "/></g></g></g><g fill="#300000" fill-opacity="1"><g transform="translate(103.196897, 282.570656)"><g><path d="M 10.328125 -16.734375 C 13.191406 -16.734375 15.445312 -16.003906 17.09375 -14.546875 C 18.738281 -13.097656 19.5625 -10.976562 19.5625 -8.1875 C 19.5625 -5.394531 18.738281 -3.269531 17.09375 -1.8125 C 15.445312 -0.351562 13.191406 0.375 10.328125 0.375 C 7.453125 0.375 5.195312 -0.347656 3.5625 -1.796875 C 1.925781 -3.242188 1.109375 -5.375 1.109375 -8.1875 C 1.109375 -11 1.925781 -13.125 3.5625 -14.5625 C 5.195312 -16.007812 7.453125 -16.734375 10.328125 -16.734375 Z M 10.328125 -12.5625 C 8.296875 -12.5625 7.28125 -11.390625 7.28125 -9.046875 L 7.28125 -7.28125 C 7.28125 -4.96875 8.296875 -3.8125 10.328125 -3.8125 C 12.367188 -3.8125 13.390625 -4.96875 13.390625 -7.28125 L 13.390625 -9.046875 C 13.390625 -11.390625 12.367188 -12.5625 10.328125 -12.5625 Z M 10.328125 -12.5625 "/></g></g></g><g fill="#300000" fill-opacity="1"><g transform="translate(123.871323, 282.570656)"><g><path d="M 13.765625 0 L 13.234375 -2.328125 C 12.035156 -0.523438 10.300781 0.375 8.03125 0.375 C 5.820312 0.375 4.113281 -0.347656 2.90625 -1.796875 C 1.707031 -3.242188 1.109375 -5.382812 1.109375 -8.21875 C 1.109375 -11.03125 1.707031 -13.148438 2.90625 -14.578125 C 4.113281 -16.015625 5.820312 -16.734375 8.03125 -16.734375 C 9.90625 -16.734375 11.429688 -16.101562 12.609375 -14.84375 L 12.609375 -22.46875 L 18.78125 -22.46875 L 18.78125 0 Z M 9.953125 -12.1875 C 8.171875 -12.1875 7.28125 -11.117188 7.28125 -8.984375 L 7.28125 -7.34375 C 7.28125 -5.238281 8.171875 -4.1875 9.953125 -4.1875 C 10.859375 -4.1875 11.535156 -4.503906 11.984375 -5.140625 C 12.441406 -5.785156 12.671875 -6.625 12.671875 -7.65625 L 12.671875 -8.6875 C 12.671875 -9.71875 12.441406 -10.554688 11.984375 -11.203125 C 11.535156 -11.859375 10.859375 -12.1875 9.953125 -12.1875 Z M 9.953125 -12.1875 "/></g></g></g><g fill="#300000" fill-opacity="1"><g transform="translate(144.545748, 282.570656)"><g><path d="M 10.328125 -16.734375 C 13.316406 -16.734375 15.601562 -16.03125 17.1875 -14.625 C 18.769531 -13.226562 19.5625 -11.082031 19.5625 -8.1875 L 19.5625 -7.125 L 7.28125 -7.125 C 7.28125 -5.945312 7.539062 -5.054688 8.0625 -4.453125 C 8.59375 -3.859375 9.429688 -3.5625 10.578125 -3.5625 C 11.609375 -3.5625 12.363281 -3.773438 12.84375 -4.203125 C 13.332031 -4.640625 13.578125 -5.222656 13.578125 -5.953125 L 19.5625 -5.953125 C 19.5625 -3.960938 18.804688 -2.410156 17.296875 -1.296875 C 15.785156 -0.179688 13.582031 0.375 10.6875 0.375 C 7.65625 0.375 5.300781 -0.332031 3.625 -1.75 C 1.945312 -3.164062 1.109375 -5.3125 1.109375 -8.1875 C 1.109375 -11 1.925781 -13.125 3.5625 -14.5625 C 5.195312 -16.007812 7.453125 -16.734375 10.328125 -16.734375 Z M 10.578125 -12.796875 C 8.628906 -12.796875 7.539062 -11.878906 7.3125 -10.046875 L 13.328125 -10.046875 C 13.328125 -10.890625 13.082031 -11.554688 12.59375 -12.046875 C 12.113281 -12.546875 11.441406 -12.796875 10.578125 -12.796875 Z M 10.578125 -12.796875 "/></g></g></g><g fill="#300000" fill-opacity="1"><g transform="translate(165.220174, 282.570656)"><g><path d="M 14.5625 -15.875 L 14.5625 0 L 7.71875 0 L 7.71875 -15.875 L 0.71875 -15.875 L 0.71875 -21.328125 L 21.546875 -21.328125 L 21.546875 -15.875 Z M 14.5625 -15.875 "/></g></g></g><g fill="#300000" fill-opacity="1"><g transform="translate(187.599392, 282.570656)"><g><path d="M 10.328125 -16.734375 C 13.191406 -16.734375 15.445312 -16.003906 17.09375 -14.546875 C 18.738281 -13.097656 19.5625 -10.976562 19.5625 -8.1875 C 19.5625 -5.394531 18.738281 -3.269531 17.09375 -1.8125 C 15.445312 -0.351562 13.191406 0.375 10.328125 0.375 C 7.453125 0.375 5.195312 -0.347656 3.5625 -1.796875 C 1.925781 -3.242188 1.109375 -5.375 1.109375 -8.1875 C 1.109375 -11 1.925781 -13.125 3.5625 -14.5625 C 5.195312 -16.007812 7.453125 -16.734375 10.328125 -16.734375 Z M 10.328125 -12.5625 C 8.296875 -12.5625 7.28125 -11.390625 7.28125 -9.046875 L 7.28125 -7.28125 C 7.28125 -4.96875 8.296875 -3.8125 10.328125 -3.8125 C 12.367188 -3.8125 13.390625 -4.96875 13.390625 -7.28125 L 13.390625 -9.046875 C 13.390625 -11.390625 12.367188 -12.5625 10.328125 -12.5625 Z M 10.328125 -12.5625 "/></g></g></g><g fill="#300000" fill-opacity="1"><g transform="translate(208.273818, 282.570656)"><g><path d="M 17.546875 0 L 8.59375 -10.359375 L 8.59375 0 L 2.296875 0 L 2.296875 -21.328125 L 8.28125 -21.328125 L 17.234375 -10.8125 L 17.234375 -21.328125 L 23.53125 -21.328125 L 23.53125 0 Z M 17.546875 0 "/></g></g></g><g fill="#300000" fill-opacity="1"><g transform="translate(234.093598, 282.570656)"><g><path d="M 10.328125 -16.734375 C 13.191406 -16.734375 15.445312 -16.003906 17.09375 -14.546875 C 18.738281 -13.097656 19.5625 -10.976562 19.5625 -8.1875 C 19.5625 -5.394531 18.738281 -3.269531 17.09375 -1.8125 C 15.445312 -0.351562 13.191406 0.375 10.328125 0.375 C 7.453125 0.375 5.195312 -0.347656 3.5625 -1.796875 C 1.925781 -3.242188 1.109375 -5.375 1.109375 -8.1875 C 1.109375 -11 1.925781 -13.125 3.5625 -14.5625 C 5.195312 -16.007812 7.453125 -16.734375 10.328125 -16.734375 Z M 10.328125 -12.5625 C 8.296875 -12.5625 7.28125 -11.390625 7.28125 -9.046875 L 7.28125 -7.28125 C 7.28125 -4.96875 8.296875 -3.8125 10.328125 -3.8125 C 12.367188 -3.8125 13.390625 -4.96875 13.390625 -7.28125 L 13.390625 -9.046875 C 13.390625 -11.390625 12.367188 -12.5625 10.328125 -12.5625 Z M 10.328125 -12.5625 "/></g></g></g><g fill="#300000" fill-opacity="1"><g transform="translate(254.768024, 282.570656)"><g><path d="M 12.765625 -16.375 L 12.765625 -12.1875 L 9.296875 -12.1875 L 9.296875 -5.953125 C 9.296875 -5.210938 9.421875 -4.671875 9.671875 -4.328125 C 9.921875 -3.984375 10.375 -3.8125 11.03125 -3.8125 L 12.765625 -3.8125 L 12.765625 -0.1875 C 12.273438 -0.0195312 11.632812 0.113281 10.84375 0.21875 C 10.0625 0.320312 9.378906 0.375 8.796875 0.375 C 6.984375 0.375 5.582031 0.046875 4.59375 -0.609375 C 3.613281 -1.273438 3.125 -2.40625 3.125 -4 L 3.125 -12.1875 L 0.84375 -12.1875 L 0.84375 -16.375 L 3.375 -16.375 L 4.71875 -21.328125 L 9.296875 -21.328125 L 9.296875 -16.375 Z M 12.765625 -16.375 "/></g></g></g><g fill="#300000" fill-opacity="1"><g transform="translate(268.53031, 282.570656)"><g><path d="M 2.078125 -18.296875 L 2.078125 -22.46875 L 8.25 -22.46875 L 8.25 -18.296875 Z M 2.078125 0 L 2.078125 -16.375 L 8.25 -16.375 L 8.25 0 Z M 2.078125 0 "/></g></g></g><g fill="#300000" fill-opacity="1"><g transform="translate(278.852011, 282.570656)"><g><path d="M 10.328125 -16.734375 C 13.191406 -16.734375 15.445312 -16.003906 17.09375 -14.546875 C 18.738281 -13.097656 19.5625 -10.976562 19.5625 -8.1875 C 19.5625 -5.394531 18.738281 -3.269531 17.09375 -1.8125 C 15.445312 -0.351562 13.191406 0.375 10.328125 0.375 C 7.453125 0.375 5.195312 -0.347656 3.5625 -1.796875 C 1.925781 -3.242188 1.109375 -5.375 1.109375 -8.1875 C 1.109375 -11 1.925781 -13.125 3.5625 -14.5625 C 5.195312 -16.007812 7.453125 -16.734375 10.328125 -16.734375 Z M 10.328125 -12.5625 C 8.296875 -12.5625 7.28125 -11.390625 7.28125 -9.046875 L 7.28125 -7.28125 C 7.28125 -4.96875 8.296875 -3.8125 10.328125 -3.8125 C 12.367188 -3.8125 13.390625 -4.96875 13.390625 -7.28125 L 13.390625 -9.046875 C 13.390625 -11.390625 12.367188 -12.5625 10.328125 -12.5625 Z M 10.328125 -12.5625 "/></g></g></g><g fill="#300000" fill-opacity="1"><g transform="translate(299.526448, 282.570656)"><g><path d="M 13.140625 -16.734375 C 15.046875 -16.734375 16.472656 -16.207031 17.421875 -15.15625 C 18.367188 -14.101562 18.84375 -12.585938 18.84375 -10.609375 L 18.84375 0 L 12.671875 0 L 12.671875 -9.859375 C 12.671875 -10.554688 12.488281 -11.117188 12.125 -11.546875 C 11.769531 -11.972656 11.265625 -12.1875 10.609375 -12.1875 C 9.835938 -12.1875 9.210938 -11.9375 8.734375 -11.4375 C 8.265625 -10.9375 8.03125 -10.328125 8.03125 -9.609375 L 8.03125 0 L 1.859375 0 L 1.859375 -16.375 L 6.90625 -16.375 L 7.3125 -13.890625 C 7.957031 -14.753906 8.800781 -15.441406 9.84375 -15.953125 C 10.882812 -16.472656 11.984375 -16.734375 13.140625 -16.734375 Z M 13.140625 -16.734375 "/></g></g></g><g clip-path="url(#id2)"><path fill="#000000" d="M 202.640625 93.210938 C 202.589844 93.199219 202.433594 93.191406 202.332031 93.1875 C 200.042969 93.097656 199.539062 91.828125 199.523438 90.78125 C 199.480469 88.546875 201.734375 88.046875 202.472656 87.882812 L 202.609375 87.851562 C 207.953125 86.632812 212.613281 88.8125 216.097656 94.144531 C 220.242188 100.476562 220.507812 107.90625 220.273438 113.675781 C 220.148438 116.75 219.726562 119.789062 219.320312 122.726562 C 219.101562 124.316406 218.871094 125.960938 218.695312 127.578125 C 218.230469 131.894531 217.882812 137.558594 219.355469 143.035156 C 221.652344 151.574219 226.132812 156.886719 233.054688 159.273438 C 233.453125 159.410156 233.847656 159.546875 234.25 159.683594 C 234.894531 159.902344 235.542969 160.121094 236.191406 160.351562 C 237.140625 160.6875 237.730469 161.449219 237.761719 162.394531 C 237.785156 162.945312 237.621094 163.953125 236.300781 164.523438 C 235.679688 164.789062 235.1875 164.96875 234.710938 165.101562 C 221.984375 168.660156 217.984375 181.960938 218.429688 192.269531 C 218.578125 195.726562 219.027344 199.234375 219.457031 202.621094 L 219.597656 203.734375 C 220.257812 208.9375 220.753906 214.527344 219.910156 220.132812 C 218.984375 226.292969 216.953125 230.78125 213.707031 233.863281 C 211.195312 236.246094 208.453125 237.457031 205.632812 237.457031 C 204.421875 237.457031 203.195312 237.230469 201.964844 236.78125 L 201.917969 236.765625 C 201.355469 236.558594 199.644531 235.933594 199.683594 234.09375 C 199.695312 233.351562 200.007812 232.070312 201.898438 231.839844 C 201.9375 231.835938 201.976562 231.832031 202.011719 231.824219 C 202.335938 231.691406 202.617188 231.671875 202.777344 231.660156 L 202.804688 231.65625 C 207.703125 230.828125 210.734375 227.59375 212.070312 221.773438 C 212.820312 218.503906 213.007812 214.832031 212.65625 210.222656 C 212.457031 207.597656 212.136719 204.9375 211.832031 202.359375 C 211.476562 199.359375 211.105469 196.257812 210.910156 193.160156 C 210.21875 182.238281 213.933594 168.984375 223.625 162.511719 C 216.542969 157.867188 212.289062 149.972656 210.96875 139.011719 C 210.296875 133.421875 211.011719 127.917969 211.707031 122.597656 L 211.804688 121.835938 C 212.371094 117.472656 212.953125 112.964844 212.769531 108.5 C 212.402344 99.605469 208.996094 94.457031 202.640625 93.210938 " fill-opacity="1" fill-rule="nonzero"/></g></svg>